<svg xmlns="http://www.w3.org/2000/svg" width="288" height="48" viewBox="0 0 288 48" shape-rendering="crispEdges">
  <defs><style>.body{fill:#6b4b32}.shade{fill:#3f2f25}.stone{fill:#8d9293}.edge{fill:#c7cbca}</style></defs>
  <g transform="translate(0 0)"><rect class="body" x="20" y="8" width="8" height="8"/><rect class="body" x="18" y="16" width="12" height="15"/><rect class="body" x="13" y="18" width="5" height="12"/><rect class="body" x="30" y="18" width="5" height="10"/><rect class="body" x="18" y="31" width="5" height="12"/><rect class="body" x="26" y="31" width="5" height="9"/><rect class="shade" x="14" y="42" width="10" height="3"/><rect class="shade" x="27" y="39" width="9" height="3"/></g>
  <g transform="translate(48 0)"><rect class="body" x="20" y="8" width="8" height="8"/><rect class="body" x="18" y="16" width="12" height="15"/><rect class="body" x="14" y="18" width="5" height="10"/><rect class="body" x="30" y="19" width="5" height="12"/><rect class="body" x="18" y="31" width="5" height="9"/><rect class="body" x="26" y="31" width="5" height="12"/><rect class="shade" x="13" y="39" width="10" height="3"/><rect class="shade" x="26" y="42" width="10" height="3"/></g>
  <g transform="translate(96 0)"><rect class="body" x="20" y="7" width="8" height="8"/><rect class="body" x="18" y="15" width="12" height="15"/><rect class="body" x="14" y="21" width="5" height="12"/><rect class="body" x="30" y="21" width="5" height="12"/><rect class="body" x="18" y="30" width="5" height="13"/><rect class="body" x="26" y="30" width="5" height="13"/><rect class="stone" x="11" y="34" width="12" height="7"/><rect class="edge" x="12" y="33" width="8" height="2"/></g>
  <g transform="translate(144 0)"><rect class="body" x="20" y="7" width="8" height="8"/><rect class="body" x="18" y="15" width="12" height="15"/><rect class="body" x="12" y="21" width="8" height="5"/><rect class="body" x="28" y="21" width="8" height="5"/><rect class="body" x="18" y="30" width="5" height="13"/><rect class="body" x="26" y="30" width="5" height="13"/><rect class="stone" x="19" y="22" width="11" height="8"/><rect class="edge" x="20" y="21" width="8" height="2"/></g>
  <g transform="translate(192 0)"><rect class="body" x="20" y="7" width="8" height="8"/><rect class="body" x="18" y="15" width="12" height="15"/><rect class="body" x="13" y="18" width="5" height="14"/><rect class="body" x="29" y="12" width="5" height="16"/><rect class="body" x="18" y="30" width="5" height="13"/><rect class="body" x="26" y="30" width="5" height="13"/><rect class="stone" x="31" y="9" width="7" height="7"/><rect class="stone" x="10" y="35" width="18" height="8"/><rect class="edge" x="12" y="34" width="12" height="2"/></g>
  <g transform="translate(240 0)"><rect class="body" x="20" y="8" width="8" height="8"/><rect class="body" x="18" y="16" width="12" height="14"/><rect class="body" x="14" y="22" width="6" height="9"/><rect class="body" x="28" y="22" width="6" height="9"/><rect class="body" x="18" y="30" width="5" height="13"/><rect class="body" x="26" y="30" width="5" height="13"/><rect class="stone" x="13" y="33" width="20" height="9"/><rect class="edge" x="15" y="32" width="16" height="2"/><rect class="stone" x="30" y="27" width="7" height="7"/></g>
</svg>
